HIERARCHY
ROOT Hips
{
	OFFSET 0.000000 0.000000 0.000000
	CHANNELS 6 Xposition Yposition Zposition Zrotation Yrotation Xrotation 
	JOINT LHipJoint
	{
		OFFSET 0.000000 0.000000 0.000000
		CHANNELS 3 Zrotation Yrotation Xrotation
		JOINT LeftUpLeg
		{
			OFFSET 1.363060 -1.794630 0.839290
			CHANNELS 3 Zrotation Yrotation Xrotation
			JOINT LeftLeg
			{
				OFFSET 2.448110 -6.726130 0.000000
				CHANNELS 3 Zrotation Yrotation Xrotation
				JOINT LeftFoot
				{
					OFFSET 2.562200 -7.039590 0.000000
					CHANNELS 3 Zrotation Yrotation Xrotation
					JOINT LeftToeBase
					{
						OFFSET 0.157640 -0.433110 2.322550
						CHANNELS 3 Zrotation Yrotation Xrotation
						End Site
						{
							OFFSET 0.000000 0.000000 0.000000
						}
					}
				}
			}
		}
	}
	JOINT RHipJoint
	{
		OFFSET 0.000000 0.000000 0.000000
		CHANNELS 3 Zrotation Yrotation Xrotation
		JOINT RightUpLeg
		{
			OFFSET -1.305520 -1.794630 0.839290
			CHANNELS 3 Zrotation Yrotation Xrotation
			JOINT RightLeg
			{
				OFFSET -2.542530 -6.985550 0.000000
				CHANNELS 3 Zrotation Yrotation Xrotation
				JOINT RightFoot
				{
					OFFSET -2.568260 -7.056230 0.000000
					CHANNELS 3 Zrotation Yrotation Xrotation
					JOINT RightToeBase
					{
						OFFSET -0.164730 -0.452590 2.363150
						CHANNELS 3 Zrotation Yrotation Xrotation
						End Site
						{
							OFFSET 0.000000 0.000000 0.000000
						}
					}
				}
			}
		}
	}
	JOINT LowerBack
	{
		OFFSET 0.000000 0.000000 0.000000
		CHANNELS 3 Zrotation Yrotation Xrotation
		JOINT Spine
		{
			OFFSET 0.028270 2.035590 -0.193380
			CHANNELS 3 Zrotation Yrotation Xrotation
			JOINT Spine1
			{
				OFFSET 0.056720 2.048850 -0.042750
				CHANNELS 3 Zrotation Yrotation Xrotation
				JOINT Neck
				{
					OFFSET 0.000000 0.000000 0.000000
					CHANNELS 3 Zrotation Yrotation Xrotation
					JOINT Neck1
					{
						OFFSET -0.054170 1.746240 0.172020
						CHANNELS 3 Zrotation Yrotation Xrotation
						JOINT Head
						{
							OFFSET 0.104070 1.761360 -0.123970
							CHANNELS 3 Zrotation Yrotation Xrotation
							End Site
							{
								OFFSET 0.000000 0.000000 0.000000
							}
						}
					}
				}
				JOINT LeftShoulder
				{
					OFFSET 0.000000 0.000000 0.000000
					CHANNELS 3 Zrotation Yrotation Xrotation
					JOINT LeftArm
					{
						OFFSET 3.362410 1.200890 -0.311210
						CHANNELS 3 Zrotation Yrotation Xrotation
						JOINT LeftForeArm
						{
							OFFSET 4.983000 -0.000000 -0.000000
							CHANNELS 3 Zrotation Yrotation Xrotation
							JOINT LeftHand
							{
								OFFSET 3.483560 -0.000000 -0.000000
								CHANNELS 3 Zrotation Yrotation Xrotation
								JOINT LeftFingerBase
								{
									OFFSET 0.000000 0.000000 0.000000
									CHANNELS 3 Zrotation Yrotation Xrotation
									JOINT LeftHandIndex1
									{
										OFFSET 0.715260 -0.000000 -0.000000
										CHANNELS 3 Zrotation Yrotation Xrotation
										End Site
										{
											OFFSET 0.000000 0.000000 0.000000
										}
									}
								}
								JOINT LThumb
								{
									OFFSET 0.000000 0.000000 0.000000
									CHANNELS 3 Zrotation Yrotation Xrotation
									End Site
									{
										OFFSET 0.000000 0.000000 0.000000
									}
								}
							}
						}
					}
				}
				JOINT RightShoulder
				{
					OFFSET 0.000000 0.000000 0.000000
					CHANNELS 3 Zrotation Yrotation Xrotation
					JOINT RightArm
					{
						OFFSET -3.136600 1.374050 -0.404650
						CHANNELS 3 Zrotation Yrotation Xrotation
						JOINT RightForeArm
						{
							OFFSET -5.241900 -0.000000 -0.000000
							CHANNELS 3 Zrotation Yrotation Xrotation
							JOINT RightHand
							{
								OFFSET -3.444170 -0.000000 -0.000000
								CHANNELS 3 Zrotation Yrotation Xrotation
								JOINT RightFingerBase
								{
									OFFSET 0.000000 0.000000 0.000000
									CHANNELS 3 Zrotation Yrotation Xrotation
									JOINT RightHandIndex1
									{
										OFFSET -0.622530 -0.000000 -0.000000
										CHANNELS 3 Zrotation Yrotation Xrotation
										End Site
										{
											OFFSET 0.000000 0.000000 0.000000
										}
									}
								}
								JOINT RThumb
								{
									OFFSET 0.000000 0.000000 0.000000
									CHANNELS 3 Zrotation Yrotation Xrotation
									End Site
									{
										OFFSET 0.000000 0.000000 0.000000
									}
								}
							}
						}
					}
				}
			}
		}
	}
}
MOTION
Frames: 10
Frame Time: 0.008333
6.408721 17.890311 35.385959 -179.552056 7.058378 -149.938464 10.103510 1.130226 -2.278917 -25.976736 -17.427044 -26.906663 -1.164591 5.583089 10.654229 0.564475 -1.291178 -15.402980 3.681900 -11.724600 -34.764400 -14.724268 -2.093172 -0.614611 25.811628 26.024714 -32.681093 0.979936 -9.108965 17.796561 -0.940576 -2.047295 -22.444536 -2.117100 9.105900 -26.127300 -4.035852 -0.659907 -17.511665 1.442907 -0.304194 -4.612984 1.690599 -0.984484 12.527108 -10.064415 -4.789886 -4.430201 9.165127 -6.562058 29.999001 1.357200 -1.227900 7.413000 17.358418 -0.910780 0.423513 -102.010478 -2.366854 22.192374 20.692316 -26.518857 -6.435449 -1.374155 0.389601 -3.087111 19.190674 -14.603491 -5.530100 -7.125000 0.000000 0.000000 -4.751100 14.074700 3.465200 -11.485477 0.723913 0.180567 97.413705 -6.413680 8.034036 -16.229096 27.825440 -5.144428 0.586184 3.438413 -1.663465 -13.061526 -44.569239 10.295600 7.125000 0.000000 0.000000 48.266400 -74.122100 -35.119200 
6.412978 17.887254 35.363688 -179.605091 6.882300 -149.988226 10.089076 1.156364 -2.295982 -26.238412 -16.795139 -26.990577 -1.122716 5.602237 10.756415 0.423509 -2.139611 -15.182940 3.797700 -11.886200 -35.330400 -14.716771 -2.107480 -0.615383 25.876452 25.918382 -32.346912 0.999895 -8.997696 17.570358 -0.944778 -2.411083 -22.454197 -2.018800 8.905000 -25.498700 -3.985558 -0.654993 -17.605690 1.438207 -0.302449 -4.625428 1.642780 -0.983663 12.544616 -10.034461 -4.787428 -4.493122 9.112787 -6.517644 30.103973 1.344600 -1.195700 7.459600 17.351883 -0.905098 0.418779 -102.034412 -2.465217 22.266843 20.694191 -26.523745 -6.456087 -1.281612 0.328953 -2.997845 18.228013 -13.865548 -4.956000 -7.125000 0.000000 0.000000 -5.433500 15.016800 3.857800 -11.482517 0.728456 0.187362 97.458371 -6.579280 7.747605 -16.151582 27.742592 -5.106472 0.586592 3.454367 -1.717971 -13.194981 -44.766108 10.434100 7.125000 0.000000 0.000000 48.770500 -74.295700 -35.687100 
6.414289 17.879612 35.336503 -179.711899 6.744781 -150.048860 10.093957 1.173831 -2.285590 -26.448373 -16.786213 -26.808432 -1.115347 5.564662 10.696208 0.395099 -2.317009 -15.144233 3.733900 -11.797600 -35.019600 -14.701790 -2.134554 -0.641185 25.946106 25.501128 -31.943221 1.028278 -8.754024 17.027745 -0.918877 -2.638717 -22.102970 -2.004900 8.876300 -25.409100 -3.928312 -0.565078 -17.783327 1.364445 -0.165103 -4.628269 1.429643 -0.909901 12.597900 -9.828284 -4.839433 -4.404207 9.092019 -6.603253 30.199896 1.296500 -1.207000 7.456300 17.359702 -0.912038 0.414354 -101.860842 -2.584702 22.628927 20.698647 -26.521973 -6.456783 -1.292415 0.318458 -3.029220 18.363168 -13.754547 -4.954500 -7.125000 0.000000 0.000000 -5.329500 15.129100 3.770400 -11.504439 0.710067 0.200367 97.788856 -6.899405 7.268834 -16.165663 27.796309 -5.120943 0.596209 3.462140 -1.755194 -13.498295 -44.966483 10.708500 7.125000 0.000000 0.000000 49.113800 -74.531200 -36.184900 
6.417673 17.875136 35.311175 -179.895390 6.587230 -150.137462 10.087292 1.193565 -2.263366 -26.727806 -16.765119 -26.669190 -1.100278 5.561714 10.721131 0.355105 -2.497186 -14.941475 3.730800 -11.793300 -35.004600 -14.704953 -2.173552 -0.670269 26.052112 24.984914 -31.430357 1.062049 -8.442948 16.339843 -0.885913 -2.939625 -21.636250 -2.116500 9.104700 -26.123300 -3.951587 -0.776604 -17.945227 1.433284 -0.442794 -4.643502 1.504383 -1.049190 12.709760 -10.112015 -4.763550 -4.438394 8.913842 -6.389862 30.334404 1.323600 -1.134600 7.504900 17.343506 -0.888982 0.420603 -102.229643 -2.514212 22.171362 20.780237 -26.613702 -6.494707 -1.331414 0.290586 -2.968149 18.861348 -13.562989 -5.022500 -7.125000 0.000000 0.000000 -4.952900 15.310100 3.482600 -11.492605 0.715063 0.208653 97.486657 -6.983372 7.492532 -16.066217 27.677056 -5.070456 0.609114 3.481953 -1.767972 -13.747994 -45.116512 10.938500 7.125000 0.000000 0.000000 49.398500 -74.724800 -36.597500 
6.421276 17.868804 35.290214 179.982967 6.378298 -150.095141 10.076112 1.191612 -2.247077 -26.823069 -16.836326 -26.678756 -1.087945 5.562477 10.719445 0.297631 -2.914474 -15.077565 3.830500 -11.931400 -35.489700 -14.704186 -2.201930 -0.691561 26.165123 24.588575 -31.116261 1.092846 -8.221327 15.838043 -0.869454 -3.297491 -21.391312 -2.313900 9.491300 -27.344700 -3.918205 -0.931349 -18.200332 1.491944 -0.659614 -4.664533 1.555124 -1.154134 12.836965 -10.427985 -4.638540 -4.523827 8.819352 -6.130182 30.419266 1.388800 -1.040000 7.551500 17.326375 -0.870158 0.423909 -102.585906 -2.470937 21.867283 20.873127 -26.717177 -6.540645 -1.375947 0.263280 -2.922240 19.417889 -13.389680 -5.110500 -7.125000 0.000000 0.000000 -4.532000 15.465500 3.169500 -11.484295 0.716962 0.218310 97.311167 -6.920344 7.357510 -15.902436 27.466135 -4.983330 0.611342 3.491245 -1.601581 -13.636711 -45.155312 10.855600 7.125000 0.000000 0.000000 49.661600 -74.708600 -36.798000 
6.423459 17.868913 35.267724 179.901127 6.234959 -150.240209 10.069873 1.208556 -2.216728 -26.911175 -17.084931 -26.266980 -1.097339 5.460447 10.506565 0.319664 -2.778353 -15.048487 3.670400 -11.708300 -34.707800 -14.684797 -2.235618 -0.736704 26.398280 24.058958 -30.643645 1.091786 -8.030829 15.490198 -0.870854 -3.047106 -21.319719 -2.319400 9.501900 -27.378400 -3.830363 -0.931509 -18.219010 1.486677 -0.675633 -4.665081 1.462855 -1.154559 12.855493 -10.452598 -4.658685 -4.478254 8.710222 -6.125684 30.392802 1.360800 -1.052800 7.529500 17.314079 -0.867857 0.422405 -102.758717 -2.516450 21.737096 20.871639 -26.715072 -6.545070 -1.361360 0.294021 -2.817761 19.217812 -13.698051 -5.174600 -7.125000 0.000000 0.000000 -4.693200 15.132000 3.316600 -11.484116 0.714000 0.227646 97.386376 -6.917407 6.909402 -15.745581 27.271101 -4.902382 0.623829 3.500442 -1.290874 -13.586120 -45.298862 10.837600 7.125000 0.000000 0.000000 50.203000 -74.774200 -37.304200 
6.423677 17.871424 35.245780 179.861901 6.112293 -150.372469 10.065958 1.222390 -2.206067 -27.005294 -17.063738 -26.083313 -1.087839 5.467941 10.571649 0.306691 -2.839612 -14.974989 3.581600 -11.581800 -34.268000 -14.667400 -2.257712 -0.764717 26.504268 23.751164 -30.186900 1.085949 -7.842839 15.131514 -0.872417 -2.572282 -21.267657 -1.962400 8.787400 -25.132500 -3.684224 -0.866907 -18.201260 1.462877 -0.619335 -4.671934 1.312462 -1.111758 12.815130 -10.411009 -4.703456 -4.366199 8.737273 -6.236151 30.251547 1.348400 -1.114100 7.458500 17.298525 -0.886806 0.417562 -102.861725 -2.633391 21.616092 20.799600 -26.627536 -6.510582 -1.316419 0.335765 -2.698583 18.652204 -14.045879 -5.144000 -7.125000 0.000000 0.000000 -5.125900 14.785100 3.663000 -11.485409 0.699110 0.231976 97.487572 -6.960255 6.502880 -15.600719 27.095363 -4.830277 0.648480 3.516245 -0.945036 -13.710922 -45.573874 10.984600 7.125000 0.000000 0.000000 51.030800 -74.982200 -38.184700 
6.423568 17.872188 35.219906 179.940075 5.947541 -150.468789 10.061723 1.221197 -2.188829 -26.881501 -17.389756 -25.683141 -1.107643 5.384840 10.402818 0.373220 -2.476028 -15.089429 3.603600 -11.613300 -34.377400 -14.677385 -2.271631 -0.781868 26.737049 23.695613 -29.635202 1.104710 -7.621902 14.666926 -0.872983 -2.583503 -21.208856 -1.770400 8.370600 -23.845400 -3.426296 -0.832211 -18.241592 1.494541 -0.652981 -4.678789 1.223091 -1.116891 12.827506 -10.323423 -4.800867 -4.354462 8.513267 -6.304168 30.200214 1.249400 -1.165300 7.433600 17.282078 -0.873912 0.412928 -103.143687 -2.694793 21.362986 20.736648 -26.536849 -6.470394 -1.303373 0.331923 -2.562249 18.517731 -13.947404 -5.067200 -7.125000 0.000000 0.000000 -5.221800 14.909400 3.718200 -11.466639 0.707094 0.233042 97.406980 -6.956712 6.287265 -15.444525 26.894808 -4.748416 0.654296 3.510072 -0.649037 -13.496879 -45.428314 10.786200 7.125000 0.000000 0.000000 50.752800 -74.817800 -37.798700 
6.424332 17.873826 35.192503 179.954388 5.778907 -150.594517 10.054882 1.224827 -2.151848 -26.821235 -17.939451 -25.093346 -1.141468 5.225406 10.043868 0.469061 -1.961497 -15.297184 3.585000 -11.586600 -34.284800 -14.680294 -2.296389 -0.815940 27.047473 23.435717 -29.099321 1.121987 -7.427388 14.289009 -0.875461 -2.792073 -21.154812 -1.934200 8.727700 -24.947200 -3.269707 -0.840499 -18.276016 1.531867 -0.715927 -4.691358 1.210371 -1.140652 12.815805 -10.625585 -4.611433 -4.551058 8.534085 -5.927624 30.598191 1.377700 -0.965500 7.623100 17.254238 -0.850825 0.417421 -103.456987 -2.644098 21.202862 20.697468 -26.464077 -6.436415 -1.328352 0.302104 -2.579157 18.817949 -13.659567 -5.045200 -7.125000 0.000000 0.000000 -4.987100 15.210900 3.517400 -11.460900 0.729357 0.245301 97.276843 -7.052996 6.218284 -15.319428 26.733032 -4.682757 0.652369 3.490843 -0.628421 -13.370315 -44.988672 10.612900 7.125000 0.000000 0.000000 49.437900 -74.516500 -36.435500 
6.425424 17.880813 35.172306 179.859956 5.675859 -150.746854 10.045190 1.243531 -2.143545 -27.036118 -17.765822 -25.053813 -1.110259 5.321539 10.334383 0.400961 -2.394808 -15.261566 3.393100 -11.305700 -33.317800 -14.665075 -2.325348 -0.846581 27.203200 23.084019 -28.683274 1.125237 -7.280621 14.030357 -0.875264 -2.849596 -21.071226 -2.039700 8.948300 -25.633600 -3.268295 -0.818708 -18.244517 1.525721 -0.685487 -4.699255 1.178712 -1.120922 12.774667 -10.527278 -4.658086 -4.455183 8.508317 -6.017433 30.486384 1.332000 -1.009600 7.561500 17.246113 -0.854628 0.413546 -103.626908 -2.652251 21.269010 20.640852 -26.373695 -6.392727 -1.358159 0.277292 -2.701590 19.138421 -13.436218 -5.051800 -7.125000 0.000000 0.000000 -4.737600 15.435500 3.317300 -11.454025 0.721693 0.243804 97.213417 -7.273458 6.343715 -15.332678 26.760635 -4.691608 0.641020 3.501445 -1.027910 -13.591335 -45.040396 10.801700 7.125000 0.000000 0.000000 49.405600 -74.636000 -36.520600 
